<?xml version="1.0" encoding="UTF-8" standalone="no"?>
<!-- Svg Vector Icons : http://www.onlinewebfonts.com/icon -->

<svg
   version="1.1"
   x="0px"
   y="0px"
   viewBox="0 0 1000 1000"
   enable-background="new 0 0 1000 1000"
   xml:space="preserve"
   id="svg14"
   sodipodi:docname="clipboard (2).svg"
   inkscape:version="1.1 (c68e22c387, 2021-05-23)"
   xmlns:inkscape="http://www.inkscape.org/namespaces/inkscape"
   xmlns:sodipodi="http://sodipodi.sourceforge.net/DTD/sodipodi-0.dtd"
   xmlns="http://www.w3.org/2000/svg"
   xmlns:svg="http://www.w3.org/2000/svg"><defs
   id="defs18" /><sodipodi:namedview
   id="namedview16"
   pagecolor="#ffffff"
   bordercolor="#666666"
   borderopacity="1.0"
   inkscape:pageshadow="2"
   inkscape:pageopacity="0.0"
   inkscape:pagecheckerboard="0"
   showgrid="false"
   inkscape:zoom="0.873"
   inkscape:cx="500"
   inkscape:cy="500"
   inkscape:window-width="2560"
   inkscape:window-height="1377"
   inkscape:window-x="3432"
   inkscape:window-y="-8"
   inkscape:window-maximized="1"
   inkscape:current-layer="svg14" />
<metadata
   id="metadata2"> Svg Vector Icons : http://www.onlinewebfonts.com/icon </metadata>
<g
   id="g12"
   style="fill:#3b3b3b;fill-opacity:1"><g
     transform="translate(0.000000,511.000000) scale(0.100000,-0.100000)"
     id="g10"
     style="fill:#3b3b3b;fill-opacity:1"><path
       d="M4252.4,4958.6c-156.5-107.4-175.2-154.2-182.2-485.9l-9.4-303.7l-411.1-4.7l-413.5-7l-7-271c-7-310.7,23.4-436.8,112.1-481.2c44.4-23.4,415.8-30.4,1654-30.4c1689,0,1700.7,0,1742.8,105.1c7,21,14,184.6,14,364.4V4169h-406.5h-406.5l-9.4,301.4c-7,334.1-25.7,380.8-182.2,488.2c-74.8,51.4-91.1,51.4-747.6,51.4C4343.5,5010,4327.2,5010,4252.4,4958.6z"
       id="path4"
       style="fill:#3b3b3b;fill-opacity:1" /><path
       d="M1266.9-40.7l7-4212l49.1-107.5c72.4-156.5,203.2-289.7,355.1-364.4l133.2-65.4H5000h3188.8l109.8,51.4c140.2,63.1,296.7,219.6,369.1,369.1l58.4,116.8l7,4212l4.7,4209.7l-799-4.7l-801.3-7l-11.7-385.5c-11.7-422.8-23.4-464.9-168.2-598.1c-182.2-172.9-44.4-161.2-1957.7-161.2c-1712.4,0-1717,0-1810.5,49.1c-51.4,28-123.8,81.8-161.2,116.8c-128.5,130.8-142.5,177.5-154.2,593.4l-11.7,385.5l-801.3,7l-799,4.7L1266.9-40.7z M7803.3-842v-3025.3H5000H2196.7V-842v3025.3H5000h2803.3V-842z"
       id="path6"
       style="fill:#3b3b3b;fill-opacity:1" /><path
       d="M6231.1,400.8c-35-16.4-443.9-401.8-911.1-859.7l-848-834l-315.4,310.7C3820.3-650.4,3731.5-599,3568-631.7c-95.8-21-217.3-112.1-261.7-198.6c-44.4-86.4-44.4-240.6,0-336.4c18.7-39.7,285-322.4,593.4-630.8l556-556L5577-1253.1C6207.8-634,6712.4-122.5,6728.7-82.7c39.7,93.4,18.7,280.3-37.4,357.4C6590.9,410.2,6385.3,468.6,6231.1,400.8z"
       id="path8"
       style="fill:#3b3b3b;fill-opacity:1" /></g></g>
</svg>
