<?xml version="1.0" encoding="utf-8"?>
<!-- Svg Vector Icons : http://www.onlinewebfonts.com/icon -->
<!DOCTYPE svg PUBLIC "-//W3C//DTD SVG 1.1//EN" "http://www.w3.org/Graphics/SVG/1.1/DTD/svg11.dtd">
<svg version="1.1" xmlns="http://www.w3.org/2000/svg" xmlns:xlink="http://www.w3.org/1999/xlink" x="0px" y="0px" viewBox="0 0 1000 1000" enable-background="new 0 0 1000 1000" xml:space="preserve">
<metadata> Svg Vector Icons : http://www.onlinewebfonts.com/icon </metadata>
<g><g transform="translate(0.000000,512.000000) scale(0.100000,-0.100000)"><path d="M2537.5,2540.2C1193.8,1171.5,96.2,41.2,100,29.6c5.8-13.5,346-353.7,759.3-759.3l751.6-738.2L2762.4-293.3L3912,879.3l5.8-2835.4l3.8-2835.4h1076.5h1076.5l3.8,2835.4l5.8,2835.4L7233.7-293.3l1151.5-1174.5l757.4,743.9C9559.7-314.4,9900,25.8,9900,35.4c0,23.1-4880.8,4996.1-4901.9,4996.1C4988.5,5031.5,3881.2,3910.8,2537.5,2540.2z"/></g></g>
</svg>