<?xml version="1.0" encoding="UTF-8" standalone="no"?>
<!-- Svg Vector Icons : http://www.onlinewebfonts.com/icon -->

<svg
   version="1.1"
   x="0px"
   y="0px"
   viewBox="0 0 1000 1000"
   enable-background="new 0 0 1000 1000"
   xml:space="preserve"
   id="svg8"
   sodipodi:docname="checked.svg"
   inkscape:version="1.1 (c68e22c387, 2021-05-23)"
   xmlns:inkscape="http://www.inkscape.org/namespaces/inkscape"
   xmlns:sodipodi="http://sodipodi.sourceforge.net/DTD/sodipodi-0.dtd"
   xmlns="http://www.w3.org/2000/svg"
   xmlns:svg="http://www.w3.org/2000/svg"><defs
   id="defs12" /><sodipodi:namedview
   id="namedview10"
   pagecolor="#ffffff"
   bordercolor="#666666"
   borderopacity="1.0"
   inkscape:pageshadow="2"
   inkscape:pageopacity="0.0"
   inkscape:pagecheckerboard="0"
   showgrid="false"
   inkscape:zoom="0.873"
   inkscape:cx="500"
   inkscape:cy="500"
   inkscape:window-width="3440"
   inkscape:window-height="1377"
   inkscape:window-x="-8"
   inkscape:window-y="-8"
   inkscape:window-maximized="1"
   inkscape:current-layer="svg8" />
<metadata
   id="metadata2"> Svg Vector Icons : http://www.onlinewebfonts.com/icon </metadata>
<g
   id="g6"
   style="fill:#f7f8f2;fill-opacity:1"><path
     d="M500,10C229.4,10,10,229.4,10,500c0,270.6,219.4,490,490,490s490-219.4,490-490C990,229.4,770.6,10,500,10z M828.5,388.8L470.3,756.3c-15.4,15.8-35.7,23.5-55.9,23.1c-20.2,0.4-40.5-7.3-56-23.1L171.5,564.6c-30.1-30.9-30.1-80.9,0-111.9c30.1-30.9,78.9-30.9,109,0L414.3,590l305.1-313.1c30.1-30.9,78.9-30.9,109,0C858.6,307.9,858.6,357.9,828.5,388.8z"
     id="path4"
     style="fill:#f7f8f2;fill-opacity:1" /></g>
</svg>
