<?xml version="1.0" encoding="utf-8"?>
<!-- Svg Vector Icons : http://www.onlinewebfonts.com/icon -->
<!DOCTYPE svg PUBLIC "-//W3C//DTD SVG 1.1//EN" "http://www.w3.org/Graphics/SVG/1.1/DTD/svg11.dtd">
<svg version="1.1" xmlns="http://www.w3.org/2000/svg" xmlns:xlink="http://www.w3.org/1999/xlink" x="0px" y="0px" viewBox="0 0 1000 1000" enable-background="new 0 0 1000 1000" xml:space="preserve">
<metadata> Svg Vector Icons : http://www.onlinewebfonts.com/icon </metadata>
<g><path d="M106.2,685.2c-12.4,12.6-22.9,28.3-30.6,45.4c-3.8,6.3-16.8,30.8-31.6,85.6c0,0-31.2,103.3-30.4,112.4c0,0-22.9,75.3,48,57.9c0,0,46.4-3.6,209.2-66.6c0,0,9.3-4.7,20.4-12.1c10.5-6.1,19.8-13.2,27.7-20.7l506.4-506.8L618,172.9L106.2,685.2z M635.7,415.9L300.4,751.2c-7.7,7.7-20.2,7.7-27.9,0l-30.8-30.8c-7.7-7.7-7.7-20.2,0-27.9L577,357.2c7.7-7.7,20.2-7.7,27.9,0l30.8,30.8C643.4,395.7,643.4,408.2,635.7,415.9z M948.7,82.6l-33.2-33.2c-48-48.2-122.3-54.3-174.3,0l-42.5,42.5L906,299.3l42.7-42.7C1018.5,201.1,986.8,130,948.7,82.6z"/></g>
</svg>